<?xml version="1.0" encoding="UTF-8"?>
<svg id="Layer_1" data-name="Layer 1" xmlns="http://www.w3.org/2000/svg" width="3.01in" height="2.16in" viewBox="0 0 217.04 155.42">
  <path d="M167.06,142.79l-5.58-.66c-.21,1.92-1.24,5.84-2.72,6.36-2.27.8-6-2.07-7.23-3.66-1.29,3.96-2.37,7.07-4.56,10.6-4.94-3.01-6.24-7.37-8.14-12.77-1.37,3.6-2.88,7.39-5.07,11.24-.62,1.09-3.9-.94-4.28-2.15l-2.52-7.99c-1.84,3.26-3.21,5.58-5.84,7.18-7.56-11.8-1.63-33.25-1-48.28-5.2-2.06-9.31-4.22-12.58-7.11-8.78,6.82-28.06-9.4-31.24-20.35l-3.9-13.45c-5.94-20.49-2-35.7-19.68-46.56-2.01-1.24-4.7-2.57-7.5-2.56l-45.23.12c18.36-3.32,36.59-3.4,55.67-3.31,3.65-1.26,7.78-3.53,11.46-5.59,10.16-5.7,24.39-5.55,32.1,4.02,4.64,5.76,4.23,13.95,6.07,21.93,15.14-9.25,33.42-24.63,51.71-22.71l-1.93,5.73c-.44,2.46-.87,4.33-2.87,6.98,17.14-3.76,34.74-7.36,52.71-10.22,4.33-.69,7.72-.47,12.11.92-2.32,4.72-4.55,6.76-7.83,9.65-2.49,3.47-6.2,5.61-10.57,6.49-2.82,3.77-6.76,6.17-11.09,7.67l-10.31,6.97-9.79,6.29c-3.86,2.48-7.2,3.66-11.73,5.38-2.47.94-4.83,5.04-8.87,4.71-3.58-.29-7.33,2.19-9.23,5.11,4.86,7.08,8.92,13.52,13.83,19.92,3.23,4.21,5.9,7.4,6.09,13.44.11,3.46.01,9.22,1.31,12.2,2.65,6.09,4.9,11.32,6.28,17.49l-1.46,3.84,3.4,13.15Z"/>
</svg>