<?xml version="1.0" encoding="UTF-8"?>
<svg id="Layer_1" data-name="Layer 1" xmlns="http://www.w3.org/2000/svg" viewBox="0 0 321.28 478.55">
  <path d="M304.17,437.76c-.86.81-1.73,1.62-2.59,2.43-.14.13-.28.26-.42.39,0,0-.04.03-.04.03-.15.13-.29.27-.44.4,0,0-.02.01-.01.01-.15.14-.3.29-.45.43-1.51,1.44-3.01,2.89-4.52,4.33-.56.51-1.13,1.02-1.69,1.53-.31.28-.61.55-.91.83,0,0-.01.01-.01.01l-.44.43c-1.36,1.28-2.73,2.57-4.09,3.85-.41.38-.83.75-1.24,1.13-.14.13-.28.26-.42.39l-.03.02c-.15.14-.31.28-.46.41-1.36,1.29-2.72,2.58-4.08,3.86-.41.37-.82.73-1.24,1.1-.46.43-.92.85-1.38,1.27-1.36,1.28-2.72,2.57-4.08,3.85-.26.23-.52.45-.78.68-.3.27-.61.55-.91.82,0,0-.02.01-.02.01-.15.14-.3.29-.44.43-1.18,1.06-2.36,2.12-3.53,3.19-.31.28-.62.56-.93.84-.88.77-1.76,1.54-2.64,2.3-.31.27-.62.55-.92.82-.63.51-1.25,1.04-1.91,1.51-1.42,1.02-2.77,2.19-4.32,2.96-2.02,1-3.45.49-4.59-1.47-2.01-3.43-4.66-6.37-7.19-9.4-4.14-4.96-8.24-9.96-12.41-14.91-3.55-4.22-7.17-8.39-10.76-12.58l-.35-.4-.04-.05c-.23-.38-.46-.77-.69-1.15,0-.11-.04-.18-.15-.2-.14-.16-.28-.32-.41-.48-.17-.14-.33-.27-.5-.41l-.43-.36c-.16-.17-.33-.35-.49-.52-.23-.39-.46-.77-.69-1.16,0-.11-.04-.18-.15-.2-.14-.16-.28-.32-.41-.48-1.23-1.32-2.47-2.65-3.7-3.97-.12-.13-.24-.26-.35-.38-.16-.17-.31-.34-.47-.51-.23-.39-.46-.77-.7-1.16-1.57-1.7-3.15-3.39-4.72-5.09-.12-.13-.24-.26-.35-.38-.16-.17-.31-.33-.47-.5-.23-.39-.47-.77-.7-1.16,0-.11-.05-.18-.16-.2-.14-.16-.28-.32-.42-.48-.62-.61-1.28-1.19-1.86-1.83-1.97-2.19-3.9-4.4-5.85-6.6-.12-.13-.24-.25-.35-.38-.16-.17-.31-.33-.47-.5-.23-.39-.47-.77-.7-1.16,0-.11-.05-.18-.16-.2-.14-.16-.28-.32-.42-.48-.62-.61-1.28-1.18-1.87-1.83-1.97-2.19-3.91-4.4-5.86-6.61-.11-.12-.22-.24-.34-.36-.16-.17-.33-.35-.49-.52-.25-.33-.5-.66-.74-.99v.03c-.17-.28-.35-.56-.53-.84-1.53-1.63-3.06-3.26-4.58-4.88-.11-.12-.23-.25-.34-.37-.16-.17-.32-.34-.49-.52-.13-.15-.26-.29-.39-.44l-.02-.02c-.24-.38-.48-.76-.72-1.14,0-.11-.05-.18-.16-.2l-.42-.48c-1.01-1.04-2.05-2.04-3.02-3.11-1.96-2.17-3.85-4.39-5.82-6.55-.97-1.07-1.31-1.03-2.28,0-.2.21-.32.49-.48.74-.14.16-.28.32-.42.48-.11.02-.16.09-.16.2-.22.24-.45.48-.67.72-1.37,1.62-2.73,3.23-4.1,4.85-.14.16-.28.32-.42.48-.11.02-.16.09-.16.2-.22.24-.45.48-.67.72-2.25,2.57-4.54,5.12-6.75,7.73-1.55,1.82-3,3.72-4.49,5.59-.14.16-.28.32-.42.48-.11.02-.16.09-.16.2-.22.24-.45.48-.67.72-2.11,2.51-4.22,5.01-6.34,7.52-.14.16-.28.32-.41.48-.11.02-.17.09-.16.2-.22.24-.45.48-.67.72-1.37,1.62-2.74,3.23-4.11,4.85-.14.16-.28.32-.41.48-.11.02-.17.09-.16.2-.22.24-.45.48-.67.72-3.74,4.3-7.48,8.6-11.22,12.9-.28.31-.55.62-.83.92-.92,1.03-1.83,2.06-2.75,3.08-.14.15-.28.31-.42.46-.11.02-.16.09-.16.2-.23.24-.46.48-.69.72-1.06,1.18-2.12,2.35-3.18,3.52-.21.23-.41.47-.62.7l-.05.05c-.2.21-.41.42-.61.63-.13.03-.18.12-.14.24-1.46,1.54-2.92,3.08-4.38,4.63l-.62.69s-.05.05-.05.05c-.2.21-.4.42-.61.63-.49.54-.98,1.07-1.47,1.61-4.62,4.59-9.24,9.17-13.84,13.76-1.2,1.2-2.36,2.43-3.54,3.64-.56.51-1.12,1.02-1.69,1.52-.31.28-.61.55-.91.83h-.01c-.15.16-.3.3-.44.44-2.11,1.85-4.23,3.68-6.31,5.56-2.32,2.1-4.11,2.05-6.25-.16-2.78-2.86-5.6-5.69-8.4-8.53-.15-.15-.3-.29-.44-.44h-.01c-.15-.15-.29-.3-.44-.44,0,0-.01-.01-.01-.01-.15-.14-.29-.28-.44-.43,0,0-.02-.01-.02-.01-.14-.14-.29-.28-.43-.43,0,0-.02-.02-.02-.02-.14-.14-.29-.28-.43-.43,0,0-.02-.02-.02-.02-.45-.29-.9-.58-1.34-.88-1.04-1.04-2.09-2.07-3.13-3.11-.29-.28-.59-.55-.88-.82-.25-.2-.49-.4-.74-.6-.3-.3-.59-.59-.89-.89-2.75-2.81-5.5-5.63-8.25-8.44l-.33-.33s-.03-.1-.03-.1c-.15-.14-.29-.29-.44-.43,0,0-.01-.01-.01-.01-.15-.14-.29-.29-.44-.43,0,0-.01-.01-.01-.01-.14-.14-.29-.28-.43-.43,0,0-.02-.02-.02-.02-.14-.14-.29-.28-.43-.43,0,0-.02-.02-.02-.02-.45-.29-.89-.58-1.34-.87-.74-.74-1.49-1.48-2.23-2.22-.3-.27-.59-.55-.89-.82-.27-.22-.54-.45-.8-.67-.13-.13-.25-.26-.38-.38-.52-.56-1.04-1.13-1.56-1.69-.11-.1-.22-.2-.33-.29-1.53-1.56-3.05-3.11-4.58-4.67l-.33-.33s-.03-.1-.03-.1c-.15-.14-.3-.28-.44-.43,0,0-.01-.01-.01-.01-.14-.14-.29-.28-.43-.42,0,0-.02-.02-.02-.02-.45-.29-.89-.58-1.34-.87-.45-.44-.9-.88-1.34-1.33-.3-.28-.59-.55-.88-.83-.05-.14-.15-.2-.3-.17-.22-.27-.44-.53-.66-.8-.11-.1-.22-.2-.33-.29-.78-.81-1.56-1.61-2.33-2.42-.57-.57-1.13-1.13-1.7-1.7-.84-.79-1.68-1.59-2.52-2.38-.29-.3-.59-.6-.88-.89-.61-.76-1.23-1.51-1.84-2.27,0,0-.01-.02-.01-.02-1.33-1.61-2.65-3.23-3.98-4.84-.9-.89-1.79-1.78-2.69-2.67-2.36-3.49-2.32-4.42-.05-7.92,0,0,0,0,0,0,.92-.69,1.84-1.38,2.75-2.08,2.55-1.98,5.11-3.95,7.64-5.95,2.38-1.88,4.74-3.79,7.12-5.66,2.48-1.95,4.98-3.86,7.47-5.8,2.51-1.95,5.01-3.9,7.52-5.86,2.26-1.77,4.51-3.54,6.77-5.31,2.1-1.64,4.18-3.28,6.3-4.89,2.17-1.64,4.37-3.22,6.56-4.83.11-.1.22-.19.33-.29l.09-.06c.15-.12.3-.24.45-.36,5.36-4.08,10.72-8.15,16.07-12.23.11-.1.22-.19.33-.29,0,0,.09-.06.09-.06.15-.12.3-.24.45-.36,2.68-2.14,5.37-4.29,8.05-6.43.11-.1.22-.19.33-.29l.09-.06c.14-.12.29-.24.43-.36.23-.19.46-.37.7-.56.21-.18.42-.36.63-.54.17-.14.34-.28.5-.42.11-.1.22-.2.33-.29,0,0,.09-.06.09-.06.14-.12.28-.24.42-.36.91-.8,1.82-1.6,2.73-2.4.1-.1.21-.2.31-.3,0,0,.1-.1.1-.1.12-.12.23-.23.35-.35l.1-.1.37-.34s.09-.06.09-.06c.14-.12.27-.25.41-.37,0,0,.04-.04.04-.04.14-.13.27-.27.41-.4.45-.45.91-.89,1.36-1.34.89-.95,1.79-1.89,2.68-2.84.24-.11.49-.22.74-.33h.13s.01-.14.01-.14c.09-.1.19-.19.29-.29,0,0,.13-.01.13-.01,0,0,.01-.13.01-.13.12-.11.23-.21.35-.32,0,0,.11-.08.11-.08.12-.12.24-.23.36-.35,0,0,.08-.08.08-.08.12-.12.24-.24.37-.36l.08-.08c.12-.12.24-.24.37-.37l.08-.08c.13-.12.26-.24.39-.36l.07-.05c.14-.13.29-.25.43-.38.46-.45.92-.89,1.37-1.34.45-.43.9-.87,1.35-1.3.3-.3.6-.59.9-.89.17-.24.34-.49.5-.73l-.52-.18-.06-.02c-.28-.13-.56-.26-.84-.4-4.42-2.27-8.84-4.53-13.27-6.8-.18-.11-.36-.23-.54-.34l-.1-.04c-.26-.16-.52-.31-.78-.47-.27-.16-.54-.32-.81-.48-.18-.12-.36-.24-.54-.35l-.08-.04c-.27-.16-.53-.33-.8-.49h0c-.16-.11-.31-.23-.47-.34l-.1-.05c-.26-.16-.52-.32-.78-.48h0c-.15-.12-.3-.23-.45-.34l-.12-.06c-.25-.17-.5-.34-.75-.51h0c-.15-.12-.31-.23-.46-.35l-.09-.05c-.26-.17-.52-.34-.78-.5h0c-.16-.12-.32-.23-.47-.35,0,0-.07-.04-.07-.04-.13-.1-.25-.19-.38-.29-.3-.21-.59-.42-.89-.63-.15-.12-.3-.24-.45-.35,0,0-.09-.06-.09-.06-.26-.18-.51-.36-.77-.55-.16-.13-.32-.25-.47-.38-.15-.12-.3-.24-.45-.36l-.08-.05c-.12-.1-.24-.2-.37-.29-.46-.35-.93-.7-1.39-1.06-.13-.12-.26-.24-.4-.35l-.09-.08-.35-.3c-.61-.5-1.21-1.01-1.82-1.51-.14-.13-.27-.25-.41-.38l-.07-.05c-.13-.12-.26-.23-.39-.35l-.09-.08c-.11-.1-.23-.2-.34-.3-.04-.17-.16-.25-.33-.23-.32-.31-.65-.61-.97-.92-1.61-1.62-3.22-3.24-4.83-4.87-.38-.43-.76-.85-1.14-1.28-.11-.12-.22-.25-.33-.37l-.08-.08c-.12-.13-.23-.25-.35-.38-1.01-1.23-2.03-2.45-3.04-3.68-.18-.25-.37-.5-.55-.75l-.06-.1c-.12-.15-.23-.29-.35-.44-.22-.31-.44-.62-.66-.92l-.26-.32s-.07-.1-.07-.1c-.12-.15-.23-.29-.35-.44-.43-.61-.86-1.22-1.28-1.83-.18-.26-.35-.51-.53-.77l-.05-.08c-.12-.16-.23-.33-.35-.49-1.53-2.49-3.19-4.91-4.55-7.49-1.76-3.36-3.32-6.82-4.88-10.28-.58-1.28-.92-2.67-1.36-4.01-.37-.83-.47-.83-1.31-.03-.83.56-1.59,1.32-2.51,1.63-3.44,1.15-6.64,3.03-10.35,3.38-.91.08-1.79.49-2.68.74-1.37.15-2.74.31-4.11.46-1.89,0-3.79,0-5.68,0-1.21-.14-2.41-.28-3.62-.42h0c-.46,0-.91,0-1.37,0-.15-.03-.29,0-.42.06-.87-.21-1.75-.41-2.62-.62-2.71-1.15-5.59-1.99-7.88-3.94-1.44-1.23-2.68-2.69-4.11-3.94-3.2-2.8-5.13-6.39-6.47-10.32-.52-1.53-.65-3.2-.95-4.81,0,0,0-.02,0-.02.02-.22.04-.44.06-.67,0-.99.01-1.98.02-2.97-.03-4.3,1.48-8.13,3.69-11.7,1.11-1.79,2.42-3.46,3.64-5.18,1.17-1.17,2.33-2.35,3.5-3.52.39-.18.87-.28,1.17-.56,2.92-2.78,6.27-4.96,9.69-7.03,2.41-1.46,4.92-2.77,7.38-4.15q1.02-.55,0-1.26s-.02-.02-.02-.02c-.14-.15-.28-.3-.42-.44-.52-.5-1.12-.94-1.53-1.51-2.39-3.27-4.17-6.8-4.32-10.96-.05-.37-.11-.74-.16-1.11,0-1.66,0-3.31,0-4.97.05-.37.09-.73.14-1.1.21-1.48.27-3,.65-4.44.66-2.49,1.26-5.02,2.81-7.19,1.89-2.63,3.72-5.3,5.58-7.96.44-.43.88-.86,1.32-1.29,1.9-1.49,3.76-3.05,5.73-4.46,1.96-1.41,4.03-2.68,6.05-4.01l.14.03s.08-.12.08-.12c1.36-.7,2.71-1.39,4.07-2.09.43-.2.85-.39,1.28-.59,1.3-.12,1.9-.9,2.09-2.14.18-1.17.43-2.33.66-3.49.48-2.39.72-4.87,1.52-7.14,2.16-6.09,7.55-9.47,11.94-13.68.05-.05.13-.07.19-.12.96-.79,1.91-1.58,2.87-2.37.86-.46,1.73-.92,2.59-1.38,1.86-.76,3.72-1.52,5.87-2.41-.82-.58-1.28-.94-1.77-1.25-10.45-6.77-20.87-13.57-31.36-20.28-8.14-5.2-16.37-10.25-24.52-15.43-3.57-2.26-7.06-4.6-11.01-6.2-1.73-.7-3.29-1.82-4.93-2.75-.33-.54-.65-1.09-.98-1.63,0-1.07.39-1.95,1.05-2.81,2.26-2.96,4.5-5.93,6.64-8.98,3.65-5.19,7.21-10.45,10.82-15.67,3.36-4.86,6.73-9.72,10.13-14.56,1.97-2.81,4.02-5.56,6.02-8.35,1.87-2.6,3.95-5.08,5.56-7.84,2.9-4.99,6.1-9.76,9.46-14.44.11-.14.23-.27.34-.41,1.13-1.02,2.44-1.55,3.97-1.49,1.03.35,2.06.69,3.08,1.04,2.85,2,5.7,3.99,8.54,6.02,4.71,3.36,9.37,6.79,14.12,10.1,2.45,1.7,5.02,3.21,7.56,4.78,1.79,1.11,3.62,2.16,5.43,3.23.89.6,1.78,1.2,2.67,1.79,1.84,1.32,3.67,2.64,5.51,3.96,3.98,2.89,8,5.73,11.94,8.68,3.81,2.86,7.49,5.88,11.28,8.76,5.57,4.23,11.23,8.34,16.76,12.6,5.13,3.96,10.11,8.11,15.25,12.07,2.84,2.18,5.85,4.14,8.92,6.29.51-.56.99-1.08,1.46-1.6.45-.45.89-.89,1.34-1.34,2.2-.86,3.37-2.84,4.85-4.48.28-.27.57-.54.85-.8,1.64-.89,3.09-2.01,4.05-3.66.16-.14.32-.29.48-.43,1.53-.64,2.49-1.91,3.51-3.11,0,0,0,0,0,0,1.5-.43,2.47-1.5,3.25-2.77.12-.03.2-.1.23-.22.68-.5,1.39-.99,2.05-1.52,1.8-1.45,3.74-2.78,5.32-4.44,1.8-1.9,4.41-2.92,5.68-5.35,1.62-1.6,3.25-3.2,4.87-4.79,2.56-1.17,4-3.52,5.83-5.46.73-.71,1.46-1.41,2.2-2.12.61-.38,1.32-.66,1.81-1.16,2.26-2.29,4.46-4.65,6.68-6.98,3.86-3.83,7.71-7.66,11.57-11.49.61-.38,1.33-.67,1.82-1.17,2.85-2.89,5.64-5.83,8.46-8.76,2.37-2.34,4.74-4.68,7.11-7.03,2.12-.97,3.53-2.72,4.89-4.52,1.15.02,2.31.05,3.46.07,1.15,1.2,2.29,2.41,3.44,3.61.95,1,1.89,2,2.83,3,1.53,1.59,3.05,3.18,4.58,4.78.14.14.27.27.41.41l.03.04c.13.14.26.29.39.43l3.95,4.16c.49.55.97,1.1,1.46,1.65.14.14.27.27.41.41,0,0,.03.04.03.04.13.14.26.29.39.43,1.02,1.09,2.04,2.19,3.05,3.28.19.25.39.5.58.75.13.13.27.27.4.4,0,0,.04.05.04.05.13.14.26.28.38.42l2.75,3.15c.13.13.26.26.39.39,0,0,.04.05.04.05.13.14.26.29.39.43.77.9,1.53,1.8,2.3,2.7.13.13.26.26.39.39,0,0,.04.05.04.05.13.14.26.29.39.43.63.75,1.25,1.5,1.88,2.25.12.13.25.26.37.38l.04.06c.13.15.25.29.38.44,1.56,1.82,3.19,3.59,4.67,5.47,3.26,4.13,6.47,8.29,9.64,12.48,1.27,1.69,2.38,3.5,3.56,5.26.08.36.16.71.23,1.07-.02.18-.05.36-.07.55-.05.21-.1.43-.16.64-.5,1.83-1.73,2.92-3.47,3.6-1.38.54-2.89.98-4.03,1.87-4.23,3.29-8.35,6.74-12.48,10.15-3.79,3.13-7.54,6.28-11.31,9.43-4.51,3.77-9.03,7.54-13.54,11.32-1.99,1.67-3.96,3.38-5.94,5.05-3.59,3.02-7.18,6.04-10.77,9.06-.3.27-.61.54-.91.81h-.02c-.16.15-.31.29-.47.43-2.42,2.04-4.83,4.1-7.27,6.12-3.81,3.15-7.63,6.27-11.46,9.39-.38.31-.86.49-1.43.81,1.36,1.25,2.27,2.1,3.19,2.94,1.63,1.66,3.25,3.31,4.88,4.97,1.74,2.06,3.65,4,5.19,6.2,3.59,5.15,7.29,10.24,10.19,15.85,1.01,1.97,2.01,3.93,3.02,5.9.42,1,.84,2,1.25,3,1.22,3.01,2.43,6.03,3.65,9.04.25.76.49,1.52.74,2.28,1.47,5.65,2.93,11.31,4.4,16.96.08.57.16,1.15.24,1.72l1.87,10.66c.09.14.18.28.27.42.13-.14.27-.28.4-.42,2.86-1.9,6.14-2.54,9.43-3.13,1.34,0,2.69,0,4.03,0,2.52.74,5.05,1.48,7.57,2.23.12.08.26.13.41.14,5.16,2.97,8.67,7.32,10.71,12.89.27.75.64,1.46.96,2.18.1.31.2.63.29.94.67,3.4,1.33,6.81,2,10.21v4.01c-.18,1.09-.42,2.17-.55,3.26-1.03,8.3-4.59,15.34-10.49,21.26-3.61,3.63-7.79,6.49-12.07,9.22q-1.87,1.2-1.06,3.09c.29.67.61,1.32.92,1.97.44,1.49.89,2.97,1.33,4.46.32,2.08.63,4.16.95,6.24,0,1.49,0,2.97,0,4.46-.64,3.54-1.15,7.1-1.95,10.6-1.55,6.73-4.48,12.78-9.39,17.74-3.43,3.46-7.28,6.35-11.79,8.27-1.19.51-1.78,1.3-2.02,2.62-.45,2.51-1.19,4.97-1.67,7.48-.26,1.34-.24,2.74-.34,4.11.12.13.24.25.35.38l.04.06c.13.14.26.28.39.43,1.02,1.09,2.04,2.18,3.06,3.27,2.72,2.78,5.43,5.56,8.15,8.34.14.14.27.27.41.41l.03.04c.13.14.26.29.39.43,1.17,1.24,2.34,2.47,3.5,3.71.59.61,1.17,1.23,1.76,1.84,1.49,1.62,2.99,3.23,4.48,4.85.93,1,1.86,1.99,2.8,2.99.28.3.56.59.84.89l6.62,6.83c.63.7,1.27,1.4,1.9,2.1.14.14.27.27.41.41l.03.04c.13.14.26.29.39.43,1.02,1.09,2.04,2.18,3.06,3.27.29.32.58.63.87.95,1.24,1.43,2.48,2.85,3.72,4.28.13.13.26.26.39.39l.04.05c.13.14.26.29.39.43.87.94,1.74,1.89,2.61,2.83.19.25.39.5.58.75.13.13.27.27.4.4l.04.05c.13.14.26.28.38.42.74.83,1.49,1.65,2.23,2.48.01.13.08.22.2.26,1.32,1.65,2.65,3.29,3.95,4.94,3.88,4.91,7.76,9.83,11.63,14.76,1.67,2.13,1.67,2.99-.04,5.21-1.52,1.97-3.07,3.9-4.61,5.85-.14.15-.29.3-.43.46,0,0-.01.01-.01.01-.14.14-.28.29-.43.43,0,0-.02.02-.02.02-.14.14-.29.29-.43.43,0,0-.02.02-.02.02-.14.14-.29.28-.43.43,0,0-.02.01-.02.01-.14.14-.29.29-.43.43,0,0-.01.01-.01.01-.15.14-.29.29-.44.43,0,0-.01.01-.01.01-.15.14-.29.29-.44.43,0,0-.01.01-.01.01-.15.15-.3.29-.44.44-2.55,2.49-5.09,4.97-7.64,7.46ZM222.76,129.11c-20.77,17.97-41.29,35.73-62.1,53.74,1.13.37,1.8.61,2.49.81,2.64.76,5.3,1.45,7.92,2.26,6.54,2.03,11.46,6.09,14.95,11.96,2.49,4.18,4.18,8.7,5.7,13.28,5.25,15.86,5.32,31.64-.81,47.32-2.67,6.82-6.42,13.08-10.52,19.1-6.98,10.25-14.27,20.29-21.36,30.48-3.76,5.41-8.31,10.05-13.12,14.51-5.44,5.05-10.87,10.16-15.85,15.66-6.5,7.18-13.27,14.05-20.74,20.2-12.22,10.06-24.52,20.02-36.83,29.96-14.03,11.33-28.13,22.59-42.4,34.04.75.53,1.57,1.12,2.39,1.69.97.68,2.04,1.24,2.91,2.03,12.78,11.68,25.53,23.39,38.3,35.09,1.81,1.66,3.57,3.37,5.46,4.93,1.65,1.36,2.81,1.16,4.21-.45.34-.39.67-.79,1.03-1.17,16.18-16.92,32.42-33.78,48.52-50.77,17.54-18.5,34.96-37.1,52.4-55.69,3.35-3.58,6.56-7.29,9.8-10.98,1.74-1.98,2.91-4.23,3.43-6.88.54-2.76,1.41-5.46,2.25-8.15.3-.97.74-2.03,1.44-2.73,4.74-4.75,12.6-6.11,18.27-.91,2.51,2.3,3.59,5.03,2.8,8.41-.13.58-.21,1.17-.26,1.76-.13,1.61-1.06,2.46-2.73,2.93.07-.68-.02-1.24.19-1.66,1.01-2,.62-4.06.36-6.12-.26-2.07-1.24-3.63-3.19-4.5-4.1-1.82-8.23-1.59-12.35-.12-1.38.49-2.31,1.6-2.85,2.98-.53,1.38-1.14,2.76-1.51,4.19-1.61,6.32-.16,11.85,4.8,16.13,1.93,1.67,4.27,2.99,6.62,4.03,4.65,2.04,9.58,2.94,14.56,1.42,5.13-1.57,9.97-3.89,14.26-7.18,5.08-3.89,8.53-8.88,9.73-15.23.51-2.69.82-5.43,1.09-8.16.23-2.31.11-4.63-.82-6.8-1.41-3.27-2.83-6.54-4.39-9.74-1.44-2.95-3.76-5.11-6.63-6.72-1.94-1.09-3.84-2.26-5.73-3.44-.66-.41-1.23-.96-2.15-1.69,1.7-.35,2.9-.37,4.13,0,3.89,1.16,7.13,3.29,9.72,6.4,2.3,2.77,3.95,5.92,5.38,9.2.53,1.22,1.03,2.47,1.67,3.64,1.66,3.02,3.42,3.52,6.38,1.69,1.51-.93,3.01-1.97,4.25-3.22,10.14-10.26,13.44-22.58,10.7-36.61-.55-2.83-1.7-5.49-3.36-7.84-4.12.34-8.06,1.05-12.09.98,1.66-.73,3.35-1.24,5.04-1.74,14.35-4.23,24.82-12.79,30.01-27.12,2.09-5.78,3.37-11.73,2.06-17.92-1.43-6.76-4.77-12.07-11.29-15.07-4.12-1.89-8.09-2.01-12.22-.05-8.66,4.1-9.17,12.64-5.34,19.62.21.38.55.7.87,1.01,2.11,2.1,3.49,2.21,5.84.43,1.95-1.48,3.75-3.08,4.25-5.81.51.55.98,1.07,1.02,1.63.19,3.09-2.81,6.72-5.87,7.24-5.94,1.02-11.06-3.12-11.17-9.13-.07-3.79,0-7.58.09-11.37.15-5.53-.32-11.01-1.71-16.35-1.96-7.54-4.23-15-6.24-22.52-2.41-9.03-6.58-17.16-12.05-24.68-4.6-6.33-9.89-12.06-15.25-17.74-1.37-1.45-2.79-2.87-4.38-4.5ZM54.85,207.28c.08.15.15.3.23.45-2.65.9-5.3,1.81-7.96,2.7-10.1,3.37-19.48,8.06-27.48,15.21-6.04,5.39-10.23,11.92-11.78,19.98-1.12,5.84.31,10.85,4.66,15.03,2.95,2.83,6.5,4.31,10.38,5.28,7.97,1.99,15.6,1.37,22.84-2.72,2.22-1.25,4.32-2.65,5.77-4.8,1.2-1.78,1.86-3.68,1.37-5.89-1.35-6.13-7.53-9.67-13.54-7.67-.98.33-1.93.78-2.82,1.29-1.56.88-2.28,2.28-2.26,4.06,0,.56,0,1.11,0,1.69-2.11-.33-2.31-.56-1.85-2.16.84-2.96,2.87-4.81,5.66-5.85,3.94-1.47,7.95-1.68,12.03-.55,3.99,1.11,6.41,3.47,6.69,7.82.2,3.18.56,6.36,1.02,9.52.84,5.74,3.02,11.03,6.04,15.93,2.69,4.36,5.67,8.53,8.44,12.85,5.38,8.38,12.69,14.68,21.09,19.83,8.76,5.37,18.09,9.59,27.39,13.89.18.08.43.01.79.01,1.98-2.29,4.03-4.64,6.06-7,7.16-8.35,14.28-16.73,21.49-25.03,2.92-3.36,6.04-6.55,9.03-9.86,1.59-1.76,3.11-3.59,4.64-5.41.35-.42.64-.9,1.24-1.75-1.31,0-2.16-.06-3.01,0-7.57.65-15.1.85-22.66-.33-6.14-.96-11.36-3.5-15.29-8.3-2.96-3.61-5.79-7.36-8.32-11.29-3.68-5.71-5.76-12.08-6.21-18.86-.77-11.56,1.95-22.42,7.31-32.62,3.24-6.17,7.71-11.45,12.47-16.48,5.66-6,11.34-11.98,17.03-17.95,2.05-2.15,4.04-4.39,6.26-6.35,9.8-8.66,19.61-17.31,29.54-25.81,6.88-5.9,13.94-11.6,20.97-17.32,17.4-14.17,34.78-28.37,52.26-42.43,12.85-10.34,26.12-20.16,38.42-31.18.42-.38.8-.8,1.29-1.3-11.64-12.6-23.17-25.08-34.81-37.68-.9.81-1.71,1.46-2.43,2.18-4.1,4.09-8.23,8.17-12.27,12.32-10.07,10.33-20.4,20.38-31.03,30.13-13.75,12.6-27.52,25.19-41.27,37.79-5.53,5.07-10.92,10.31-16.57,15.24-7.95,6.93-16.1,13.64-24.16,20.45-1.41,1.19-2.81,2.39-4.29,3.66.73,1.21,1.46,2.24,2.01,3.36,1.27,2.57,2.71,5.13,1.68,8.17-.55,1.62-1.15,3.22-1.73,4.82-.63,1.74-1.79,3.03-3.34,4.05-4.79,3.18-10.08,4.7-15.77,4.72-3.91.02-7.71-.72-10.98-3.06-.74-.53-1.45-1.32-1.81-2.15-.83-1.87-.12-3.8.11-5.7.03-.25.31-.52.54-.68.85-.56,1.73-1.07,2.69-1.66.09.46.2.69.15.88-.11.5-.28,1-.45,1.48-1.17,3.22.83,7.16,4.14,7.86,6.18,1.31,12.11.26,17.81-2.24,1.9-.83,3.2-2.34,4.03-4.28.49-1.15,1.13-2.25,1.78-3.32,1.54-2.55,1.5-4.99-.52-7.17-1.08-1.16-2.53-2-3.86-2.91-.79-.54-1.76-.82-2.51-1.4-1.7-1.31-3.63-1.99-5.69-2.36-6.39-1.16-12.8-1.66-19.27-.76-3.22.45-6.49.63-9.57,1.82-1.16.45-2.29,1.02-3.39,1.61-1.1.59-2.1,1.38-3.23,1.91-5.19,2.44-10.21,5.16-14.52,9.01-3.22,2.88-5.83,6.22-6.75,10.52-.52,2.45-.56,5-.76,7.52-.23,2.9.68,5.45,2.67,7.55,2.2,2.31,4.43,4.6,6.76,6.77,2.04,1.9,4.51,3.13,7.24,3.75,3.33.76,6.67,1.44,9.99,2.21,1.32.31,2.59.79,3.89,1.2-1.07.62-2.06.95-3.06.98-7.83.21-15.04-1.64-21.14-6.77-1.98-1.67-3.73-3.61-5.54-5.47-3.05-3.14-5.56-3.78-9.4-1.84-8.31,4.21-14.63,10.42-17.97,19.25-3.32,8.78-1.63,18.28,5.21,24.1,1.03.88,1.88,1.07,3.19.76,4.97-1.18,9.98-2.19,14.98-3.27ZM21.1,63.16c3.85,3.19,7.34,6.73,11.41,9.36,25.65,16.56,51.43,32.89,77.13,49.37,1.9,1.21,3.84,1.8,6.01,2.01,2.67.25,5.33.6,7.72,1.93.93.52,1.68.4,2.48-.13,1.54-1.03,3.18-1.94,4.61-3.12,11.06-9.13,21.78-18.65,32-28.73,1.4-1.38,2.56-3.01,3.92-4.64-.77-.66-1.31-1.15-1.88-1.61-18.27-14.62-36.82-28.89-55.77-42.62-14.56-10.55-29.28-20.86-44.78-30.01-2.29-1.35-4.63-2.61-7.17-4.04-11.92,17.45-23.73,34.72-35.69,52.24ZM307.15,428.84c-2.28-2.32-4.42-4.47-6.53-6.65-11.24-11.58-21.59-23.95-32.12-36.15-8.5-9.85-17.14-19.56-26.52-28.59-.63-.61-1.28-1.2-1.76-1.65-.36-.02-.45-.05-.5-.02-.87.41-1.74.82-2.61,1.23-5.74,2.69-11.71,4.24-18.1,3.76-6.56-.5-12.01-3.2-16.11-8.35-1.42-1.78-2.52-3.82-3.87-5.9-8.33,8.68-16.69,17.4-25.05,26.12,28.18,32.75,56.22,65.34,84.41,98.1,16.38-14.06,32.53-27.93,48.78-41.89ZM296.47,46.53c-2.85,2.15-5.53,4.03-8.04,6.1-39.85,32.84-79.69,65.7-119.5,98.59-12.16,10.05-23.82,20.63-33.67,33.05-3.92,4.95-7.99,9.78-11.73,14.87-3.5,4.76-5.93,10.1-7.26,15.9-.85,3.69-1.75,7.36-2.71,11.02-2.53,9.67-1.2,18.71,4.37,27.04,2.65,3.97,5.8,7.54,9.38,10.7,3.6,3.19,7.63,5.66,12.33,6.89,8.76,2.28,17.31,1.37,25.41-2.43,4.81-2.26,6.73-6.78,7.74-12.23-1.2.4-2.05.58-2.8.97-1.58.81-3.11,1.73-4.66,2.61-1.51.86-3.1,1.48-4.85,1.45-3.79-.07-7.58-.02-11.35-.32-4.2-.33-8.23-1.51-11.59-4.15-11.16-8.74-16.32-20.82-12.2-35.47,3.4-12.06,9.5-22.06,19.3-29.99,5.76-4.66,11.01-9.97,16.49-14.98,1.53-1.4,3.01-2.88,4.62-4.18,13.35-10.79,26.76-21.49,40.07-32.34,6.51-5.3,12.73-10.95,19.22-16.27,14.18-11.65,28.52-23.1,42.65-34.81,12.18-10.1,23.94-20.71,36.91-29.84.35-.25.66-.56,1.1-.94-3.08-3.75-6.08-7.41-9.23-11.24ZM28.3,420.39c.77-.66,1.33-1.14,1.89-1.62,6.98-6.01,13.77-12.26,20.98-17.98,14.3-11.37,28.87-22.41,43.26-33.67,8.13-6.36,16.45-12.52,23.74-19.87,9.1-9.17,18.18-18.37,27.03-27.79,11.06-11.77,20.76-24.65,30.37-37.6,4.48-6.04,8.06-12.63,11.12-19.51,3.7-8.34,6.24-16.99,6.91-26.13.96-13.13-2.15-25.31-8.45-36.8-2.27-4.14-5.37-7.33-9.63-9.23-3.65-1.63-7.45-2.92-11.22-4.24-3.47-1.21-6.94-.91-10.14.82-2.14,1.15-4.08,2.67-6.09,4.06-.3.21-.45.62-.75,1.05,1.56.19,2.88.29,4.19.52,1.39.24,2.77.52,4.13.91,11.18,3.2,23.1,14.53,27.39,26.01.34.9.71,1.81.87,2.75.53,2.99,1.02,5.99,1.44,9,.6,4.28.89,8.57-.28,12.82-.16.57-.27,1.17-.26,1.76.04,2.47-.81,4.67-2.05,6.73-.92,1.52-1.87,3.04-2.89,4.49-6.97,9.9-13.95,19.79-20.96,29.66-1.12,1.57-2.34,3.09-3.67,4.48-8.99,9.4-18,18.77-27.03,28.12-7.18,7.42-14.23,14.98-22.45,21.3-1.05.81-2.01,1.77-2.9,2.77-2.98,3.34-6.38,6.21-9.89,8.97-23.61,18.65-47.2,37.32-70.8,55.98-.85.67-1.69,1.36-2.6,2.09,2.98,3.46,5.78,6.72,8.75,10.16ZM154.42,255.93c1.41,0,2.82.04,4.23,0,3.05-.1,5.8-1.02,8.28-2.84,3.55-2.61,6.65-5.61,9.27-9.21,5.35-7.34,6.02-15.22,2.89-23.44-4.23-11.14-12.95-17.61-23.7-21.67-4.68-1.77-9.03-.89-12.87,2.42-10.57,9.11-14.83,20.86-13.41,34.44,1,9.57,6.51,16.22,15.83,19.35,3.07,1.03,6.28,1.08,9.48.95ZM308.01,426.63c2.87-3.18,5.59-6.2,8.36-9.27-.5-.72-.9-1.33-1.33-1.92-8.12-11.13-17.12-21.51-26.63-31.45-12.42-13-24.97-25.89-37.46-38.81-.24-.25-.56-.43-.93-.72-2.47,2.97-4.88,5.85-7.31,8.77,21.85,24.56,43.51,48.91,65.3,73.4ZM10.55,76.63c1.94,1.03,3.49,1.89,5.07,2.68,5.26,2.63,10.23,5.71,14.94,9.24,3.15,2.36,6.35,4.67,9.68,6.75,15.61,9.77,31.28,19.45,46.91,29.18.89.55,1.65.67,2.69.41,5.13-1.29,10.33-2.08,15.64-1.98.55.01,1.11,0,1.66,0-.51-.75-1.08-1.18-1.68-1.57-4.97-3.25-9.94-6.51-14.92-9.75-17.42-11.34-34.7-22.91-52.61-33.5-5.24-3.1-10.29-6.5-15.42-9.79-.98-.63-1.9-1.36-2.81-2.02-3.05,3.44-5.99,6.76-9.17,10.35Z" fill="#070905"/>
  <path d="M.02,250.35s-.02-.09-.02-.08c0,0,.02.08.02.08Z" fill="#070905"/>
  <path d="M222.76,129.11c1.59,1.63,3,3.04,4.38,4.5,5.36,5.67,10.65,11.41,15.25,17.74,5.46,7.52,9.64,15.66,12.05,24.68,2.01,7.53,4.28,14.98,6.24,22.52,1.39,5.34,1.86,10.82,1.71,16.35-.1,3.79-.16,7.58-.09,11.37.11,6.01,5.23,10.15,11.17,9.13,3.06-.53,6.05-4.16,5.87-7.24-.03-.55-.5-1.08-1.02-1.63-.5,2.73-2.3,4.34-4.25,5.81-2.35,1.78-3.74,1.67-5.84-.43-.31-.31-.66-.63-.87-1.01-3.84-6.98-3.32-15.52,5.34-19.62,4.14-1.96,8.11-1.84,12.22.05,6.52,3,9.87,8.31,11.29,15.07,1.31,6.19.03,12.14-2.06,17.92-5.18,14.33-15.66,22.89-30.01,27.12-1.69.5-3.38,1.01-5.04,1.74,4.02.07,7.97-.64,12.09-.98,1.66,2.35,2.81,5,3.36,7.84,2.75,14.03-.56,26.35-10.7,36.61-1.24,1.25-2.74,2.29-4.25,3.22-2.96,1.83-4.73,1.33-6.38-1.69-.64-1.17-1.14-2.42-1.67-3.64-1.43-3.28-3.08-6.43-5.38-9.2-2.59-3.11-5.83-5.24-9.72-6.4-1.23-.37-2.43-.35-4.13,0,.93.74,1.5,1.28,2.15,1.69,1.89,1.18,3.79,2.35,5.73,3.44,2.87,1.6,5.19,3.76,6.63,6.72,1.56,3.2,2.98,6.47,4.39,9.74.93,2.17,1.05,4.49.82,6.8-.27,2.73-.58,5.47-1.09,8.16-1.21,6.35-4.66,11.34-9.73,15.23-4.29,3.29-9.13,5.6-14.26,7.18-4.98,1.53-9.91.63-14.56-1.42-2.35-1.03-4.69-2.36-6.62-4.03-4.95-4.29-6.41-9.82-4.8-16.13.37-1.43.97-2.8,1.51-4.19.53-1.38,1.46-2.49,2.85-2.98,4.11-1.46,8.25-1.7,12.35.12,1.95.87,2.93,2.43,3.19,4.5.26,2.06.66,4.12-.36,6.12-.21.42-.12.98-.19,1.66,1.66-.47,2.59-1.32,2.73-2.93.05-.59.13-1.19.26-1.76.78-3.38-.29-6.11-2.8-8.41-5.67-5.2-13.53-3.84-18.27.91-.7.7-1.14,1.75-1.44,2.73-.84,2.69-1.7,5.39-2.25,8.15-.52,2.66-1.69,4.9-3.43,6.88-3.24,3.68-6.44,7.4-9.8,10.98-17.44,18.59-34.86,37.2-52.4,55.69-16.1,16.99-32.34,33.85-48.52,50.77-.36.37-.69.78-1.03,1.17-1.39,1.61-2.56,1.81-4.21.45-1.89-1.56-3.65-3.27-5.46-4.93-12.76-11.7-25.52-23.41-38.3-35.09-.86-.79-1.94-1.35-2.91-2.03-.82-.57-1.64-1.16-2.39-1.69,14.27-11.46,28.36-22.72,42.4-34.04,12.31-9.94,24.61-19.9,36.83-29.96,7.47-6.15,14.24-13.02,20.74-20.2,4.98-5.5,10.4-10.61,15.85-15.66,4.81-4.46,9.36-9.11,13.12-14.51,7.08-10.18,14.38-20.22,21.36-30.48,4.09-6.01,7.84-12.27,10.52-19.1,6.14-15.67,6.07-31.46.81-47.32-1.52-4.58-3.21-9.1-5.7-13.28-3.49-5.87-8.41-9.94-14.95-11.96-2.62-.81-5.28-1.5-7.92-2.26-.69-.2-1.37-.44-2.49-.81,20.81-18.01,41.33-35.77,62.1-53.74Z" fill="#dc1d4f"/>
  <path d="M54.85,207.28c-5,1.08-10,2.1-14.98,3.27-1.31.31-2.16.12-3.19-.76-6.84-5.81-8.54-15.32-5.21-24.1,3.34-8.83,9.66-15.04,17.97-19.25,3.84-1.94,6.35-1.3,9.4,1.84,1.81,1.86,3.56,3.81,5.54,5.47,6.1,5.13,13.31,6.98,21.14,6.77,1-.03,1.99-.36,3.06-.98-1.3-.4-2.57-.89-3.89-1.2-3.32-.78-6.67-1.45-9.99-2.21-2.73-.62-5.2-1.85-7.24-3.75-2.33-2.17-4.56-4.46-6.76-6.77-1.99-2.1-2.9-4.65-2.67-7.55.2-2.51.24-5.07.76-7.52.92-4.29,3.53-7.64,6.75-10.52,4.31-3.85,9.33-6.57,14.52-9.01,1.13-.53,2.13-1.32,3.23-1.91,1.1-.59,2.23-1.16,3.39-1.61,3.07-1.19,6.34-1.37,9.57-1.82,6.48-.9,12.89-.4,19.27.76,2.06.37,3.99,1.05,5.69,2.36.75.58,1.72.87,2.51,1.4,1.33.91,2.78,1.74,3.86,2.91,2.02,2.17,2.06,4.61.52,7.17-.65,1.08-1.29,2.17-1.78,3.32-.83,1.94-2.13,3.44-4.03,4.28-5.7,2.5-11.63,3.55-17.81,2.24-3.31-.7-5.31-4.65-4.14-7.86.18-.49.34-.98.45-1.48.04-.2-.07-.43-.15-.88-.96.59-1.84,1.1-2.69,1.66-.23.15-.51.43-.54.68-.22,1.9-.93,3.84-.11,5.7.37.83,1.07,1.61,1.81,2.15,3.27,2.34,7.07,3.08,10.98,3.06,5.69-.02,10.99-1.55,15.77-4.72,1.54-1.02,2.7-2.31,3.34-4.05.58-1.6,1.18-3.2,1.73-4.82,1.02-3.04-.42-5.6-1.68-8.17-.55-1.12-1.28-2.15-2.01-3.36,1.48-1.27,2.88-2.47,4.29-3.66,8.06-6.81,16.21-13.52,24.16-20.45,5.66-4.93,11.04-10.17,16.57-15.24,13.75-12.61,27.52-25.19,41.27-37.79,10.63-9.74,20.96-19.8,31.03-30.13,4.05-4.15,8.17-8.23,12.27-12.32.73-.73,1.53-1.38,2.43-2.18,11.64,12.6,23.17,25.08,34.81,37.68-.49.5-.87.92-1.29,1.3-12.3,11.02-25.57,20.84-38.42,31.18-17.48,14.06-34.86,28.26-52.26,42.43-7.03,5.72-14.08,11.42-20.97,17.32-9.93,8.51-19.74,17.15-29.54,25.81-2.22,1.96-4.21,4.2-6.26,6.35-5.69,5.97-11.36,11.96-17.03,17.95-4.76,5.04-9.23,10.32-12.47,16.48-5.36,10.2-8.08,21.06-7.31,32.62.45,6.78,2.52,13.15,6.21,18.86,2.53,3.92,5.36,7.67,8.32,11.29,3.93,4.8,9.14,7.34,15.29,8.3,7.56,1.18,15.1.98,22.66.33.84-.07,1.7,0,3.01,0-.6.86-.88,1.33-1.24,1.75-1.53,1.81-3.05,3.64-4.64,5.41-2.99,3.3-6.11,6.49-9.03,9.86-7.21,8.31-14.33,16.69-21.49,25.03-2.03,2.37-4.08,4.72-6.06,7-.36,0-.61.07-.79-.01-9.3-4.3-18.63-8.52-27.39-13.89-8.4-5.15-15.71-11.45-21.09-19.83-2.77-4.31-5.75-8.49-8.44-12.85-3.02-4.9-5.2-10.19-6.04-15.93-.46-3.16-.82-6.34-1.02-9.52-.27-4.35-2.69-6.71-6.69-7.82-4.07-1.14-8.09-.92-12.03.55-2.79,1.04-4.82,2.9-5.66,5.85-.45,1.6-.26,1.83,1.85,2.16,0-.58,0-1.14,0-1.69-.02-1.78.7-3.19,2.26-4.06.9-.51,1.85-.96,2.82-1.29,6.01-2,12.19,1.54,13.54,7.67.49,2.21-.17,4.11-1.37,5.89-1.45,2.16-3.55,3.55-5.77,4.8-7.24,4.09-14.87,4.71-22.84,2.72-3.88-.97-7.43-2.44-10.38-5.28-4.35-4.18-5.78-9.19-4.66-15.03,1.55-8.06,5.74-14.59,11.78-19.98,8-7.14,17.38-11.84,27.48-15.21,2.66-.89,5.31-1.8,7.96-2.7-.08-.15-.15-.3-.23-.45Z" fill="#1c5ee4"/>
  <path d="M21.1,63.16c11.97-17.52,23.77-34.79,35.69-52.24,2.54,1.43,4.88,2.69,7.17,4.04,15.49,9.16,30.22,19.46,44.78,30.01,18.95,13.74,37.49,28,55.77,42.62.57.45,1.11.95,1.88,1.61-1.36,1.63-2.52,3.26-3.92,4.64-10.22,10.08-20.94,19.59-32,28.73-1.42,1.17-3.06,2.09-4.61,3.12-.8.53-1.55.65-2.48.13-2.38-1.33-5.05-1.68-7.72-1.93-2.17-.2-4.12-.79-6.01-2.01-25.7-16.47-51.49-32.81-77.13-49.37-4.07-2.63-7.56-6.16-11.41-9.36Z" fill="#dc1d4f"/>
  <path d="M307.15,428.84c-16.25,13.96-32.4,27.83-48.78,41.89-28.19-32.76-56.23-65.35-84.41-98.1,8.36-8.72,16.73-17.44,25.05-26.12,1.35,2.08,2.45,4.12,3.87,5.9,4.11,5.16,9.55,7.86,16.11,8.35,6.4.48,12.37-1.07,18.1-3.76.87-.41,1.74-.83,2.61-1.23.06-.03.15,0,.5.02.48.45,1.13,1.04,1.76,1.65,9.38,9.03,18.02,18.75,26.52,28.59,10.54,12.2,20.88,24.58,32.12,36.15,2.11,2.18,4.25,4.33,6.53,6.65Z" fill="#1c5ee4"/>
  <path d="M296.47,46.53c3.15,3.83,6.15,7.49,9.23,11.24-.44.38-.75.69-1.1.94-12.96,9.13-24.72,19.74-36.91,29.84-14.13,11.71-28.47,23.16-42.65,34.81-6.49,5.33-12.72,10.97-19.22,16.27-13.3,10.84-26.72,21.55-40.07,32.34-1.61,1.3-3.09,2.78-4.62,4.18-5.48,5.01-10.72,10.32-16.49,14.98-9.8,7.92-15.9,17.93-19.3,29.99-4.13,14.65,1.03,26.73,12.2,35.47,3.37,2.64,7.4,3.82,11.59,4.15,3.77.3,7.57.26,11.35.32,1.75.03,3.34-.58,4.85-1.45,1.54-.89,3.08-1.8,4.66-2.61.75-.38,1.6-.56,2.8-.97-1.01,5.45-2.93,9.97-7.74,12.23-8.11,3.81-16.65,4.71-25.41,2.43-4.7-1.22-8.72-3.7-12.33-6.89-3.58-3.17-6.73-6.74-9.38-10.7-5.57-8.33-6.91-17.37-4.37-27.04.96-3.66,1.86-7.34,2.71-11.02,1.33-5.8,3.76-11.14,7.26-15.9,3.74-5.08,7.81-9.92,11.73-14.87,9.85-12.42,21.5-23,33.67-33.05,39.81-32.89,79.65-65.74,119.5-98.59,2.52-2.08,5.2-3.95,8.04-6.1Z" fill="#f6e904"/>
  <path d="M28.3,420.39c-2.97-3.44-5.77-6.7-8.75-10.16.91-.73,1.75-1.42,2.6-2.09,23.6-18.66,47.19-37.33,70.8-55.98,3.5-2.77,6.9-5.63,9.89-8.97.89-.99,1.85-1.96,2.9-2.77,8.22-6.33,15.28-13.88,22.45-21.3,9.04-9.35,18.05-18.72,27.03-28.12,1.33-1.39,2.55-2.91,3.67-4.48,7.01-9.87,13.99-19.76,20.96-29.66,1.02-1.46,1.97-2.97,2.89-4.49,1.24-2.06,2.09-4.26,2.05-6.73-.01-.59.1-1.19.26-1.76,1.17-4.25.88-8.54.28-12.82-.42-3.01-.91-6.01-1.44-9-.17-.94-.54-1.85-.87-2.75-4.28-11.48-16.21-22.81-27.39-26.01-1.35-.39-2.74-.67-4.13-.91-1.3-.22-2.63-.33-4.19-.52.3-.43.46-.84.75-1.05,2.01-1.39,3.95-2.9,6.09-4.06,3.21-1.73,6.68-2.03,10.14-.82,3.77,1.32,7.57,2.61,11.22,4.24,4.25,1.9,7.35,5.09,9.63,9.23,6.3,11.49,9.41,23.68,8.45,36.8-.67,9.13-3.21,17.79-6.91,26.13-3.05,6.88-6.63,13.47-11.12,19.51-9.61,12.95-19.32,25.84-30.37,37.6-8.85,9.42-17.93,18.62-27.03,27.79-7.29,7.35-15.61,13.51-23.74,19.87-14.4,11.25-28.96,22.3-43.26,33.67-7.21,5.73-14,11.97-20.98,17.98-.56.48-1.12.96-1.89,1.62Z" fill="#f6e804"/>
  <path d="M308.01,426.63c-21.79-24.49-43.46-48.85-65.3-73.4,2.43-2.92,4.84-5.81,7.31-8.77.37.28.69.46.93.72,12.5,12.93,25.04,25.81,37.46,38.81,9.5,9.94,18.51,20.33,26.63,31.45.43.59.83,1.2,1.33,1.92-2.77,3.07-5.49,6.09-8.36,9.27Z" fill="#f6e804"/>
  <path d="M10.55,76.63c3.18-3.59,6.12-6.91,9.17-10.35.91.66,1.83,1.39,2.81,2.02,5.12,3.29,10.18,6.69,15.42,9.79,17.91,10.59,35.19,22.16,52.61,33.5,4.98,3.24,9.95,6.5,14.92,9.75.6.39,1.17.82,1.68,1.57-.55,0-1.11,0-1.66,0-5.31-.1-10.52.69-15.64,1.98-1.04.26-1.8.15-2.69-.41-15.63-9.74-31.3-19.41-46.91-29.18-3.33-2.09-6.54-4.39-9.68-6.75-4.71-3.53-9.68-6.61-14.94-9.24-1.58-.79-3.13-1.65-5.07-2.68Z" fill="#f6e804"/>
</svg>